HIERARCHY
ROOT root
{
	OFFSET 0.000000 0.000000 0.000000
	CHANNELS 6 Xposition Yposition Zposition Zrotation Yrotation Xrotation
	JOINT lhip
	{
		OFFSET 0.058581 -0.082280 -0.017664
		CHANNELS 3 Zrotation Yrotation Xrotation
		JOINT lknee
		{
			OFFSET 0.043451 -0.386469 0.008037
			CHANNELS 3 Zrotation Yrotation Xrotation
			JOINT lankle
			{
				OFFSET -0.014790 -0.426874 -0.037428
				CHANNELS 3 Zrotation Yrotation Xrotation
				JOINT ltoe
				{
					OFFSET 0.041054 -0.060286 0.122042
					CHANNELS 3 Zrotation Yrotation Xrotation
					End Site
					{
						OFFSET 0.000000 0.000000 0.000000
					}
				}
			}
		}
	}
	JOINT rhip
	{
		OFFSET -0.060310 -0.090513 -0.013543
		CHANNELS 3 Zrotation Yrotation Xrotation
		JOINT rknee
		{
			OFFSET -0.043257 -0.383688 -0.004843
			CHANNELS 3 Zrotation Yrotation Xrotation
			JOINT rankle
			{
				OFFSET 0.019056 -0.420046 -0.034562
				CHANNELS 3 Zrotation Yrotation Xrotation
				JOINT rtoe
				{
					OFFSET -0.034840 -0.062106 0.130323
					CHANNELS 3 Zrotation Yrotation Xrotation
					End Site
					{
						OFFSET 0.000000 0.000000 0.000000
					}
				}
			}
		}
	}
	JOINT lowerback
	{
		OFFSET 0.004439 0.124404 -0.038385
		CHANNELS 3 Zrotation Yrotation Xrotation
		JOINT upperback
		{
			OFFSET 0.004488 0.137956 0.026820
			CHANNELS 3 Zrotation Yrotation Xrotation
			JOINT chest
			{
				OFFSET -0.002265 0.056032 0.002855
				CHANNELS 3 Zrotation Yrotation Xrotation
				JOINT lowerneck
				{
					OFFSET -0.013390 0.211636 -0.033468
					CHANNELS 3 Zrotation Yrotation Xrotation
					JOINT upperneck
					{
						OFFSET 0.010113 0.088937 0.050410
						CHANNELS 3 Zrotation Yrotation Xrotation
						End Site
						{
							OFFSET 0.000000 0.000000 0.000000
						}
					}
				}
				JOINT lclavicle
				{
					OFFSET 0.071702 0.114000 -0.018898
					CHANNELS 3 Zrotation Yrotation Xrotation
					JOINT lshoulder
					{
						OFFSET 0.122921 0.045205 -0.019046
						CHANNELS 3 Zrotation Yrotation Xrotation
						JOINT lelbow
						{
							OFFSET 0.255332 -0.015649 -0.022946
							CHANNELS 3 Zrotation Yrotation Xrotation
							JOINT lwrist
							{
								OFFSET 0.265709 0.012698 -0.007375
								CHANNELS 3 Zrotation Yrotation Xrotation
								End Site
								{
									OFFSET 0.000000 0.000000 0.000000
								}
							}
						}
					}
				}
				JOINT rclavicle
				{
					OFFSET -0.082954 0.112472 -0.023707
					CHANNELS 3 Zrotation Yrotation Xrotation
					JOINT rshoulder
					{
						OFFSET -0.113228 0.046853 -0.008472
						CHANNELS 3 Zrotation Yrotation Xrotation
						JOINT relbow
						{
							OFFSET -0.260127 -0.014369 -0.031269
							CHANNELS 3 Zrotation Yrotation Xrotation
							JOINT rwrist
							{
								OFFSET -0.269108 0.006794 -0.006027
								CHANNELS 3 Zrotation Yrotation Xrotation
								End Site
								{
									OFFSET 0.000000 0.000000 0.000000
								}
							}
						}
					}
				}
			}
		}
	}
}
MOTION
Frames: 11
Frame Time: 0.033333
0.187735 -0.071606 0.965795 131.678555 5.260186 87.494826 29.572730 14.390787 1.530964 1.658017 5.620071 35.363143 -28.991033 4.325230 18.155843 0.000000 -0.000000 0.000000 8.650816 12.046720 -20.399617 3.582591 8.314716 30.681375 3.577856 14.595277 -12.265155 0.000000 -0.000000 0.000000 -14.331911 -9.733960 14.460248 -0.744451 -25.018363 6.221908 -1.061991 -10.374328 -15.088514 -15.112488 59.699981 -0.147625 -0.848439 29.430737 -1.301023 34.893585 -57.162555 -41.791144 27.515903 -73.760807 -51.130399 10.798665 -24.622384 -1.224856 6.632796 -15.635696 1.635570 -12.247522 15.627112 -17.843813 37.816891 28.501501 -2.381345 -110.203858 38.129023 -72.076362 -45.040428 7.730446 -29.221270 
0.180568 -0.070743 0.966818 132.814607 5.241370 87.891948 28.900972 14.326117 1.061169 1.137497 5.495098 34.848610 -27.391888 3.524448 14.901767 0.000000 -0.000000 0.000000 8.055965 11.737390 -20.897993 3.445762 8.066523 30.296855 3.911998 14.053226 -12.216667 0.000000 -0.000000 0.000000 -14.155884 -9.525200 14.860959 -0.616495 -25.005363 6.300835 -0.872694 -10.418318 -14.920449 -14.677223 59.253669 0.658448 -0.988876 29.654266 -1.485431 34.243060 -57.316238 -41.076757 24.955333 -73.850958 -48.935537 10.422623 -23.835747 -0.700021 5.290252 -13.999221 1.464772 -12.253388 16.050390 -17.806934 39.328856 28.941409 -1.516547 -108.512936 37.577985 -71.706942 -43.505961 5.706689 -30.851534 
0.171186 -0.070014 0.968122 134.681000 5.275367 88.204367 28.302993 14.481088 0.456252 0.774088 5.922010 34.134329 -25.547833 2.944733 11.249419 0.000000 -0.000000 0.000000 7.303722 11.246489 -21.245769 3.202722 7.553854 29.748543 4.407047 13.369037 -11.933147 0.000000 -0.000000 0.000000 -13.826773 -9.330258 15.987168 -0.272792 -24.952857 5.868081 -0.608617 -10.609550 -14.284748 -14.919273 58.914019 0.603207 -1.185524 29.294697 -1.395166 33.214441 -57.129536 -39.955985 23.073455 -74.279682 -47.679008 9.954403 -22.956656 0.362545 3.811618 -12.371147 0.635374 -12.094471 16.120548 -17.818048 41.074696 29.633975 -0.269438 -106.473560 37.414823 -70.868221 -43.196008 3.646158 -32.729059 
0.159888 -0.069336 0.968955 137.208082 5.223017 88.692446 27.382526 14.818169 -0.434691 0.606164 6.578429 33.132196 -23.448862 2.151768 7.308984 0.000000 -0.000000 0.000000 6.143960 9.962156 -21.819775 3.000959 6.551768 29.193549 4.936378 13.073235 -11.649938 0.000000 -0.000000 0.000000 -13.300136 -9.112033 16.961824 0.012432 -25.033205 5.654395 -0.467563 -10.787624 -13.468471 -14.873287 58.539276 0.478516 -1.170390 29.054557 -0.903562 32.337834 -56.959677 -39.088897 20.204180 -74.846900 -45.640915 9.266346 -21.906785 1.018749 2.332602 -10.917905 0.259700 -11.675209 16.197984 -17.745377 42.986062 30.517435 1.004602 -104.374979 36.914989 -70.157464 -41.945518 2.162422 -33.947750 
0.146502 -0.069054 0.969569 140.042307 5.193258 89.279847 26.483528 15.310966 -1.407840 0.418267 7.575845 31.727734 -21.618581 1.357338 3.618532 0.000000 -0.000000 0.000000 4.853854 8.972413 -22.370105 2.738759 5.538978 28.367915 5.645164 12.423014 -11.375915 0.000000 -0.000000 0.000000 -12.800656 -8.731519 18.116756 0.553069 -24.981858 5.407785 -0.101753 -10.887287 -12.886456 -14.031321 57.992405 1.144555 -1.385735 28.630345 -0.415854 31.091315 -57.058104 -37.682583 16.658022 -75.330138 -42.872924 8.620263 -20.444845 1.970850 0.767942 -9.644967 -0.258118 -10.824946 16.534478 -17.289463 44.716663 31.119752 2.244060 -101.919227 36.613669 -68.985317 -40.394017 0.341584 -35.612443 
0.131414 -0.069054 0.969459 143.607024 5.184534 89.946320 25.464586 15.500464 -2.629539 -0.040223 8.226310 30.052004 -19.365454 0.298971 -0.298849 0.000000 -0.000000 0.000000 3.321157 7.835624 -22.988651 2.649907 3.905571 27.520126 6.444391 11.202772 -10.907702 0.000000 -0.000000 0.000000 -12.049639 -8.566008 19.230321 1.209620 -24.944458 5.334253 0.239919 -11.084027 -12.182139 -13.610347 57.117325 1.474651 -1.430313 28.296321 0.195173 29.101866 -56.650080 -35.666389 11.375017 -76.250372 -38.563704 8.015683 -19.068476 3.305600 -0.512987 -8.843062 -1.255371 -9.771697 16.688322 -16.820103 47.062162 31.885192 4.184547 -99.208296 36.206739 -67.898754 -39.128546 -0.946113 -37.523331 
0.113618 -0.070428 0.969096 147.806411 5.037304 90.812439 23.949099 15.421372 -4.575121 -0.469634 9.046332 28.466912 -16.565412 -0.294003 -3.844167 0.000000 -0.000000 0.000000 1.615228 6.481448 -23.765800 2.281907 2.452737 26.953162 6.911441 9.962576 -10.536170 0.000000 -0.000000 0.000000 -10.833184 -8.618607 20.494285 2.019136 -24.767092 4.713499 0.594981 -11.787308 -10.844379 -15.342428 55.547443 -0.631498 -1.370562 27.738570 1.255562 26.885097 -54.705653 -34.006097 0.766560 -77.921341 -30.097586 7.726112 -18.320334 4.601059 -1.427881 -7.621074 -2.788131 -9.116498 16.455134 -16.475553 50.818659 33.331331 6.681920 -96.520846 35.938328 -66.788717 -37.663100 -2.487604 -38.757585 
0.093668 -0.072743 0.967997 152.848058 4.690884 91.843917 22.041689 15.019739 -7.373872 -1.214483 9.531998 27.241738 -13.651957 -0.811648 -7.295462 0.000000 -0.000000 0.000000 -0.508407 5.268501 -24.701497 1.694624 0.243682 26.642484 7.726122 8.215914 -10.486166 0.000000 -0.000000 0.000000 -9.998500 -7.722910 21.273277 2.925965 -24.941585 5.038378 1.045553 -11.477976 -10.496882 -10.898280 53.638308 3.317785 -1.588843 26.381572 1.655769 24.124571 -57.668407 -30.460063 -4.420386 -77.144277 -25.353665 7.034796 -16.287949 4.216340 -1.968482 -6.998347 -2.275013 -7.153710 17.264584 -15.905662 53.098239 31.659197 8.441045 -93.710571 35.181893 -66.334055 -36.596557 -4.001555 -40.098645 
0.072048 -0.076416 0.966408 158.513006 4.245366 92.954245 19.995747 14.207386 -10.783414 -2.041559 10.488706 26.463624 -10.809204 -1.166963 -9.835321 0.000000 -0.000000 0.000000 -2.745660 4.007903 -25.506143 0.787080 -2.254613 26.625673 8.019173 6.072020 -10.376101 0.000000 -0.000000 0.000000 -8.491356 -7.455717 21.887494 4.001730 -24.906198 5.195087 1.388006 -12.009264 -9.297337 -10.830056 51.139981 2.909417 -1.656799 24.990258 2.092182 21.657279 -57.003635 -28.043031 -19.098055 -77.454359 -12.913661 6.749937 -14.963752 5.977489 -1.947313 -5.753985 -3.425382 -5.911997 17.361908 -15.116649 57.597626 31.919974 11.143817 -90.382592 34.364630 -64.635404 -35.796066 -5.331277 -42.637154 
0.049075 -0.080427 0.965324 165.133884 3.431262 93.594973 17.249116 12.615944 -14.139736 -2.656045 10.124081 25.925877 -8.252160 -1.530178 -11.548704 0.000000 -0.000000 0.000000 -5.180392 2.283010 -25.182534 -0.408140 -4.528269 26.455714 8.386842 3.659922 -10.506169 0.000000 -0.000000 0.000000 -6.790328 -6.963731 22.623208 5.271499 -25.051612 5.330178 1.807798 -12.080852 -7.998148 -10.317265 47.255228 3.299971 -2.072495 22.852139 2.202679 18.048492 -57.196097 -24.522766 -33.128224 -76.629970 -0.720539 6.163302 -13.394585 6.987279 -0.568190 -4.428482 -3.407141 -3.838611 18.159275 -13.962749 60.893659 30.794488 13.044914 -87.148909 33.816554 -64.235436 -35.069285 -6.637415 -44.270518 
0.024931 -0.084167 0.964294 172.726440 2.284689 93.875747 13.950252 10.158322 -17.232535 -3.020672 8.131983 25.651015 -6.273603 -2.540782 -12.618641 0.000000 -0.000000 0.000000 -7.930242 0.162959 -23.929429 -1.871558 -6.830576 26.634289 8.598723 1.252282 -10.459995 0.000000 -0.000000 0.000000 -4.379728 -6.350242 22.726800 6.530697 -25.178797 5.833304 2.310255 -12.345308 -7.151336 -9.675826 42.164300 4.537584 -2.409727 20.514053 1.843879 12.920036 -57.663111 -19.669846 -45.681546 -74.318693 9.376519 5.781474 -11.292511 8.462712 0.001234 -3.053835 -2.605737 -2.188445 18.869370 -12.720380 65.011132 28.814272 14.891034 -82.892793 33.864207 -62.868233 -33.605519 -8.653070 -45.947115 
